:FULLY-SPECIFIED
:FORCE-ALL-JOINTS-BE-3DOF
:DEGREES
204
root 4.87732 15.059 -25.4293 7.07764 -1.63086 5.70066
lfemur 7.76387 -1.25168 0.614201
ltibia 5.81595 0 0
lfoot -35.9075 -12.7284 0
ltoes 46.8864 0 0
rfemur -31.1628 -19.4668 -8.84644
rtibia 50.5057 0 0
rfoot -26.478 17.8656 0
rtoes 60.1521 0 0
lowerback -3.53686 -1.59159 -0.388914
upperback -0.572166 -2.01307 -7.7479
thorax 1.12633 -1.01101 -7.97579
lowerneck -11.6857 0.40345 6.8474
upperneck 3.78247 -0.661226 2.53792
head 3.29318 -0.100511 -0.41573
lclavicle 9.93923e-17 -1.27222e-14 0
lhumerus -58.9313 -46.763 115.811
lradius 54.0188 0 0
lwrist 26.8256 0 0
lhand 39.9977 30.8286 0
lfingers 7.12502 0 0
lthumb 62.3933 41.8241 0
rclavicle 9.93923e-17 -1.27222e-14 0
rhumerus -3.26601 -12.1528 -11.388
rradius 53.9006 0 0
rwrist -23.879 0 0
rhand -21.1893 -49.6806 0
rfingers 7.12502 0 0
rthumb 5.19161 -439.597 0
205
root 4.85578 15.0566 -25.4458 7.16699 -1.46806 5.56928
lfemur 7.32439 -1.61059 0.837935
ltibia 6.20575 0 0
lfoot -35.723 -12.4325 0
ltoes 47.0766 0 0
rfemur -31.3446 -19.663 -8.56598
rtibia 50.6885 0 0
rfoot -26.6002 17.9082 0
rtoes 60.1647 0 0
lowerback -3.25406 -1.60952 -0.436119
upperback -0.588241 -2.05084 -7.61592
thorax 0.95327 -1.0324 -7.79566
lowerneck -11.5625 0.469257 6.80745
upperneck 3.70712 -0.549263 2.46894
head 3.24592 -0.0518911 -0.424147
lclavicle 1.13591e-16 -8.8601e-15 0
lhumerus -59.0295 -46.5928 115.95
lradius 54.1848 0 0
lwrist 26.6762 0 0
lhand 39.5186 30.552 0
lfingers 7.12502 0 0
lthumb 61.9886 42.0102 0
rclavicle 1.13591e-16 -8.8601e-15 0
rhumerus -4.09492 -14.7862 -12.1459
rradius 56.3472 0 0
rwrist -23.7274 0 0
rhand -25.5419 -51.5936 0
rfingers 7.12502 0 0
rthumb 0.995823 -466.574 0
206
root 4.83423 15.0542 -25.4624 7.25634 -1.30525 5.4379
lfemur 6.8849 -1.96949 1.06167
ltibia 6.59556 0 0
lfoot -35.5386 -12.1366 0
ltoes 47.2669 0 0
rfemur -31.5264 -19.8592 -8.28552
rtibia 50.8713 0 0
rfoot -26.7225 17.9508 0
rtoes 60.1774 0 0
lowerback -2.97126 -1.62745 -0.483325
upperback -0.604315 -2.08861 -7.48394
thorax 0.78021 -1.05379 -7.61554
lowerneck -11.4392 0.535063 6.76749
upperneck 3.63177 -0.4373 2.39997
head 3.19866 -0.00327129 -0.432563
lclavicle 1.2779e-16 -4.998e-15 0
lhumerus -59.1278 -46.4226 116.09
lradius 54.3508 0 0
lwrist 26.5268 0 0
lhand 39.0396 30.2754 0
lfingers 7.12502 0 0
lthumb 61.5838 42.1962 0
rclavicle 1.2779e-16 -4.998e-15 0
rhumerus -4.92383 -17.4197 -12.9038
rradius 58.7938 0 0
rwrist -23.5757 0 0
rhand -29.8944 -53.5065 0
rfingers 7.12502 0 0
rthumb -3.19996 -493.55 0
207
root 4.81269 15.0518 -25.4789 7.34569 -1.14245 5.30652
lfemur 6.44542 -2.3284 1.2854
ltibia 6.98536 0 0
lfoot -35.3541 -11.8407 0
ltoes 47.4571 0 0
rfemur -31.7082 -20.0554 -8.00506
rtibia 51.0541 0 0
rfoot -26.8447 17.9934 0
rtoes 60.19 0 0
lowerback -2.68846 -1.64538 -0.53053
upperback -0.62039 -2.12638 -7.35196
thorax 0.60715 -1.07518 -7.43541
lowerneck -11.316 0.60087 6.72754
upperneck 3.55642 -0.325337 2.33099
head 3.1514 0.0453486 -0.44098
lclavicle 1.41989e-16 -1.1359e-15 0
lhumerus -59.226 -46.2524 116.229
lradius 54.5168 0 0
lwrist 26.3774 0 0
lhand 38.5605 29.9988 0
lfingers 7.12502 0 0
lthumb 61.1791 42.3823 0
rclavicle 1.41989e-16 -1.1359e-15 0
rhumerus -5.75274 -20.0531 -13.6617
rradius 61.2404 0 0
rwrist -23.4241 0 0
rhand -34.247 -55.4195 0
rfingers 7.12502 0 0
rthumb -7.39575 -520.527 0
208
root 4.79115 15.0494 -25.4954 7.43504 -0.979647 5.17514
lfemur 6.00594 -2.68731 1.50914
ltibia 7.37516 0 0
lfoot -35.1696 -11.5448 0
ltoes 47.6474 0 0
rfemur -31.8901 -20.2516 -7.72459
rtibia 51.237 0 0
rfoot -26.9669 18.036 0
rtoes 60.2026 0 0
lowerback -2.40565 -1.6633 -0.577735
upperback -0.636465 -2.16415 -7.21998
thorax 0.434091 -1.09656 -7.25528
lowerneck -11.1928 0.666677 6.68758
upperneck 3.48108 -0.213374 2.26202
head 3.10414 0.0939684 -0.449397
lclavicle 1.56188e-16 2.7262e-15 0
lhumerus -59.3242 -46.0823 116.369
lradius 54.6827 0 0
lwrist 26.2281 0 0
lhand 38.0814 29.7223 0
lfingers 7.12502 0 0
lthumb 60.7743 42.5683 0
rclavicle 1.56188e-16 2.7262e-15 0
rhumerus -6.58164 -22.6866 -14.4197
rradius 63.6869 0 0
rwrist -23.2724 0 0
rhand -38.5996 -57.3324 0
rfingers 7.12502 0 0
rthumb -11.5915 -547.503 0
209
root 4.76961 15.047 -25.5119 7.52439 -0.816844 5.04376
lfemur 5.56646 -3.04622 1.73287
ltibia 7.76496 0 0
lfoot -34.9851 -11.2489 0
ltoes 47.8376 0 0
rfemur -32.0719 -20.4478 -7.44413
rtibia 51.4198 0 0
rfoot -27.0891 18.0786 0
rtoes 60.2152 0 0
lowerback -2.12285 -1.68123 -0.62494
upperback -0.65254 -2.20192 -7.088
thorax 0.261031 -1.11795 -7.07515
lowerneck -11.0696 0.732484 6.64763
upperneck 3.40573 -0.101411 2.19304
head 3.05688 0.142588 -0.457814
lclavicle 1.70387e-16 6.5883e-15 0
lhumerus -59.4224 -45.9121 116.508
lradius 54.8487 0 0
lwrist 26.0787 0 0
lhand 37.6023 29.4457 0
lfingers 7.12502 0 0
lthumb 60.3696 42.7544 0
rclavicle 1.70387e-16 6.5883e-15 0
rhumerus -7.41055 -25.32 -15.1776
rradius 66.1335 0 0
rwrist -23.1208 0 0
rhand -42.9522 -59.2454 0
rfingers 7.12502 0 0
rthumb -15.7873 -574.48 0
210
root 4.74806 15.0446 -25.5285 7.61374 -0.65404 4.91238
lfemur 5.12697 -3.40512 1.95661
ltibia 8.15477 0 0
lfoot -34.8007 -10.953 0
ltoes 48.0279 0 0
rfemur -32.2537 -20.644 -7.16367
rtibia 51.6026 0 0
rfoot -27.2114 18.1212 0
rtoes 60.2279 0 0
lowerback -1.84005 -1.69916 -0.672146
upperback -0.668614 -2.23969 -6.95602
thorax 0.0879709 -1.13934 -6.89503
lowerneck -10.9463 0.79829 6.60767
upperneck 3.33038 0.010552 2.12407
head 3.00962 0.191208 -0.46623
lclavicle 1.84586e-16 1.04504e-14 0
lhumerus -59.5207 -45.7419 116.648
lradius 55.0147 0 0
lwrist 25.9293 0 0
lhand 37.1233 29.1691 0
lfingers 7.12502 0 0
lthumb 59.9648 42.9404 0
rclavicle 1.84586e-16 1.04504e-14 0
rhumerus -8.23946 -27.9535 -15.9355
rradius 68.5801 0 0
rwrist -22.9691 0 0
rhand -47.3047 -61.1583 0
rfingers 7.12502 0 0
rthumb -19.9831 -601.456 0
211
root 4.72652 15.0422 -25.545 7.70309 -0.491237 4.781
lfemur 4.68749 -3.76403 2.18034
ltibia 8.54457 0 0
lfoot -34.6162 -10.6571 0
ltoes 48.2181 0 0
rfemur -32.4355 -20.8402 -6.88321
rtibia 51.7854 0 0
rfoot -27.3336 18.1638 0
rtoes 60.2405 0 0
lowerback -1.55725 -1.71709 -0.719351
upperback -0.684689 -2.27746 -6.82404
thorax -0.0850889 -1.16073 -6.7149
lowerneck -10.8231 0.864097 6.56772
upperneck 3.25503 0.122515 2.05509
head 2.96236 0.239828 -0.474647
lclavicle 1.98785e-16 1.43125e-14 0
lhumerus -59.6189 -45.5717 116.787
lradius 55.1807 0 0
lwrist 25.7799 0 0
lhand 36.6442 28.8925 0
lfingers 7.12502 0 0
lthumb 59.5601 43.1265 0
rclavicle 1.98785e-16 1.43125e-14 0
rhumerus -9.06837 -30.5869 -16.6934
rradius 71.0267 0 0
rwrist -22.8175 0 0
rhand -51.6573 -63.0713 0
rfingers 7.12502 0 0
rthumb -24.1789 -628.433 0
